<?xml version="1.0" encoding="UTF-8" standalone="no"?>
<!-- Created with Inkscape (http://www.inkscape.org/) -->

<svg
   xmlns:osb="http://www.openswatchbook.org/uri/2009/osb"
   xmlns:dc="http://purl.org/dc/elements/1.1/"
   xmlns:cc="http://creativecommons.org/ns#"
   xmlns:rdf="http://www.w3.org/1999/02/22-rdf-syntax-ns#"
   xmlns:svg="http://www.w3.org/2000/svg"
   xmlns="http://www.w3.org/2000/svg"
   xmlns:xlink="http://www.w3.org/1999/xlink"
   xmlns:sodipodi="http://sodipodi.sourceforge.net/DTD/sodipodi-0.dtd"
   xmlns:inkscape="http://www.inkscape.org/namespaces/inkscape"
   width="90.171875"
   height="52.240227"
   id="svg2"
   version="1.1"
   inkscape:version="0.48.4 r9939"
   sodipodi:docname="coincell.svg">
  <sodipodi:namedview
     id="base"
     pagecolor="#ffffff"
     bordercolor="#666666"
     borderopacity="1.0"
     inkscape:pageopacity="0.0"
     inkscape:pageshadow="2"
     inkscape:zoom="1.979899"
     inkscape:cx="78.96894"
     inkscape:cy="25.989521"
     inkscape:document-units="in"
     inkscape:current-layer="layer1"
     showgrid="true"
     inkscape:window-width="1637"
     inkscape:window-height="898"
     inkscape:window-x="50"
     inkscape:window-y="92"
     inkscape:window-maximized="0"
     units="in"
     fit-margin-top="0"
     fit-margin-left="0"
     fit-margin-right="0"
     fit-margin-bottom="0">
    <inkscape:grid
       originy="-4.3619672in"
       originx="-2.7878719in"
       spacingy="0.01in"
       spacingx="0.01in"
       snapvisiblegridlinesonly="true"
       enabled="true"
       visible="true"
       empspacing="5"
       units="in"
       id="grid2985"
       type="xygrid" />
  </sodipodi:namedview>
  <defs
     id="defs4">
    <inkscape:path-effect
       effect="spiro"
       id="path-effect6565"
       is_visible="true" />
    <inkscape:path-effect
       effect="spiro"
       id="path-effect6561"
       is_visible="true" />
    <inkscape:path-effect
       is_visible="true"
       id="path-effect4439"
       effect="spiro" />
    <linearGradient
       id="linearGradient4254"
       inkscape:collect="always">
      <stop
         id="stop4256"
         offset="0"
         style="stop-color:#1a1a1a;stop-opacity:1;" />
      <stop
         id="stop4258"
         offset="1"
         style="stop-color:#1a1a1a;stop-opacity:0;" />
    </linearGradient>
    <linearGradient
       id="linearGradient4246"
       inkscape:collect="always">
      <stop
         id="stop4248"
         offset="0"
         style="stop-color:#1a1a1a;stop-opacity:1;" />
      <stop
         id="stop4250"
         offset="1"
         style="stop-color:#1a1a1a;stop-opacity:0;" />
    </linearGradient>
    <linearGradient
       id="linearGradient3936"
       inkscape:collect="always">
      <stop
         id="stop3938"
         offset="0"
         style="stop-color:#999999;stop-opacity:1;" />
      <stop
         id="stop3940"
         offset="1"
         style="stop-color:#999999;stop-opacity:0;" />
    </linearGradient>
    <linearGradient
       id="linearGradient3902"
       inkscape:collect="always">
      <stop
         id="stop3904"
         offset="0"
         style="stop-color:#999999;stop-opacity:1;" />
      <stop
         id="stop3906"
         offset="1"
         style="stop-color:#999999;stop-opacity:0;" />
    </linearGradient>
    <linearGradient
       id="linearGradient3894">
      <stop
         id="stop3896"
         offset="0"
         style="stop-color:#f2f2f2;stop-opacity:1;" />
      <stop
         id="stop3898"
         offset="1"
         style="stop-color:#f2f2f2;stop-opacity:0;" />
    </linearGradient>
    <inkscape:path-effect
       is_visible="true"
       id="path-effect3784"
       effect="spiro" />
    <inkscape:path-effect
       is_visible="true"
       id="path-effect3759"
       effect="spiro" />
    <linearGradient
       osb:paint="gradient"
       id="linearGradient3776">
      <stop
         id="stop3778"
         offset="0"
         style="stop-color:#0000ff;stop-opacity:1;" />
      <stop
         id="stop3780"
         offset="1"
         style="stop-color:#0000ff;stop-opacity:0;" />
    </linearGradient>
    <inkscape:perspective
       sodipodi:type="inkscape:persp3d"
       inkscape:vp_x="0 : 526.18109 : 1"
       inkscape:vp_y="0 : 1000 : 0"
       inkscape:vp_z="744.09448 : 526.18109 : 1"
       inkscape:persp3d-origin="372.04724 : 350.78739 : 1"
       id="perspective10" />
    <inkscape:path-effect
       is_visible="true"
       id="path-effect3759-1"
       effect="spiro" />
    <inkscape:path-effect
       is_visible="true"
       id="path-effect3759-6"
       effect="spiro" />
    <inkscape:path-effect
       is_visible="true"
       id="path-effect3759-1-8"
       effect="spiro" />
    <linearGradient
       gradientTransform="translate(-0.03574039,0)"
       gradientUnits="userSpaceOnUse"
       y2="717.80603"
       x2="405.09543"
       y1="717.80603"
       x1="315.09543"
       id="linearGradient3908"
       xlink:href="#linearGradient3902"
       inkscape:collect="always" />
    <linearGradient
       gradientUnits="userSpaceOnUse"
       y2="701.33386"
       x2="406.88376"
       y1="701.33386"
       x1="316.88733"
       id="linearGradient3942-2"
       xlink:href="#linearGradient3936-1"
       inkscape:collect="always" />
    <linearGradient
       id="linearGradient3936-1"
       inkscape:collect="always">
      <stop
         id="stop3938-3"
         offset="0"
         style="stop-color:#999999;stop-opacity:1;" />
      <stop
         id="stop3940-9"
         offset="1"
         style="stop-color:#999999;stop-opacity:0;" />
    </linearGradient>
    <linearGradient
       gradientUnits="userSpaceOnUse"
       y2="701.33386"
       x2="406.88376"
       y1="701.33386"
       x1="316.88733"
       id="linearGradient3934-3"
       xlink:href="#linearGradient3902-0"
       inkscape:collect="always" />
    <linearGradient
       id="linearGradient3902-0"
       inkscape:collect="always">
      <stop
         id="stop3904-4"
         offset="0"
         style="stop-color:#999999;stop-opacity:1;" />
      <stop
         id="stop3906-6"
         offset="1"
         style="stop-color:#999999;stop-opacity:0;" />
    </linearGradient>
    <linearGradient
       y2="701.33386"
       x2="406.88376"
       y1="701.33386"
       x1="316.88733"
       gradientTransform="translate(2.0482283,36.660756)"
       gradientUnits="userSpaceOnUse"
       id="linearGradient4024"
       xlink:href="#linearGradient3902-0"
       inkscape:collect="always" />
    <linearGradient
       y2="701.33386"
       x2="406.88376"
       y1="701.33386"
       x1="316.88733"
       gradientTransform="translate(2.0482112,36.660679)"
       gradientUnits="userSpaceOnUse"
       id="linearGradient4026"
       xlink:href="#linearGradient3936"
       inkscape:collect="always" />
    <linearGradient
       y2="701.33386"
       x2="406.88376"
       y1="701.33386"
       x1="316.88733"
       gradientTransform="translate(2.0482112,36.660679)"
       gradientUnits="userSpaceOnUse"
       id="linearGradient4028"
       xlink:href="#linearGradient3902"
       inkscape:collect="always" />
    <linearGradient
       gradientTransform="translate(-0.03574039,0)"
       gradientUnits="userSpaceOnUse"
       y2="717.80603"
       x2="405.09543"
       y1="717.80603"
       x1="315.09543"
       id="linearGradient3908-8"
       xlink:href="#linearGradient3902-7"
       inkscape:collect="always" />
    <linearGradient
       id="linearGradient3902-7"
       inkscape:collect="always">
      <stop
         id="stop3904-2"
         offset="0"
         style="stop-color:#999999;stop-opacity:1;" />
      <stop
         id="stop3906-7"
         offset="1"
         style="stop-color:#999999;stop-opacity:0;" />
    </linearGradient>
    <linearGradient
       inkscape:collect="always"
       xlink:href="#linearGradient3902-7"
       id="linearGradient4064"
       gradientUnits="userSpaceOnUse"
       gradientTransform="translate(-13.53574,49.5)"
       x1="315.09543"
       y1="717.80603"
       x2="405.09543"
       y2="717.80603" />
    <linearGradient
       gradientTransform="translate(-0.03574039,0)"
       gradientUnits="userSpaceOnUse"
       y2="717.80603"
       x2="405.09543"
       y1="717.80603"
       x1="315.09543"
       id="linearGradient3908-2"
       xlink:href="#linearGradient3902-05"
       inkscape:collect="always" />
    <linearGradient
       id="linearGradient3902-05"
       inkscape:collect="always">
      <stop
         id="stop3904-6"
         offset="0"
         style="stop-color:#999999;stop-opacity:1;" />
      <stop
         id="stop3906-1"
         offset="1"
         style="stop-color:#999999;stop-opacity:0;" />
    </linearGradient>
    <linearGradient
       y2="701.33386"
       x2="406.88376"
       y1="701.33386"
       x1="316.88733"
       gradientTransform="translate(2.0482283,36.660756)"
       gradientUnits="userSpaceOnUse"
       id="linearGradient4024-3"
       xlink:href="#linearGradient3902-0-1"
       inkscape:collect="always" />
    <linearGradient
       id="linearGradient3902-0-1"
       inkscape:collect="always">
      <stop
         id="stop3904-4-4"
         offset="0"
         style="stop-color:#999999;stop-opacity:1;" />
      <stop
         id="stop3906-6-0"
         offset="1"
         style="stop-color:#999999;stop-opacity:0;" />
    </linearGradient>
    <linearGradient
       y2="701.33386"
       x2="406.88376"
       y1="701.33386"
       x1="316.88733"
       gradientTransform="translate(2.0482112,36.660679)"
       gradientUnits="userSpaceOnUse"
       id="linearGradient4026-8"
       xlink:href="#linearGradient3936-9"
       inkscape:collect="always" />
    <linearGradient
       id="linearGradient3936-9"
       inkscape:collect="always">
      <stop
         id="stop3938-2"
         offset="0"
         style="stop-color:#999999;stop-opacity:1;" />
      <stop
         id="stop3940-0"
         offset="1"
         style="stop-color:#999999;stop-opacity:0;" />
    </linearGradient>
    <linearGradient
       y2="701.33386"
       x2="406.88376"
       y1="701.33386"
       x1="316.88733"
       gradientTransform="translate(2.0482112,36.660679)"
       gradientUnits="userSpaceOnUse"
       id="linearGradient4028-3"
       xlink:href="#linearGradient3902-05"
       inkscape:collect="always" />
    <inkscape:path-effect
       is_visible="true"
       id="path-effect3759-4"
       effect="spiro" />
    <inkscape:path-effect
       is_visible="true"
       id="path-effect3759-1-6"
       effect="spiro" />
    <linearGradient
       y2="701.33386"
       x2="406.88376"
       y1="701.33386"
       x1="316.88733"
       gradientTransform="translate(2.0482283,36.660756)"
       gradientUnits="userSpaceOnUse"
       id="linearGradient4202"
       xlink:href="#linearGradient3902-0-1"
       inkscape:collect="always" />
    <linearGradient
       y2="701.33386"
       x2="406.88376"
       y1="701.33386"
       x1="316.88733"
       gradientTransform="translate(2.0482112,36.660679)"
       gradientUnits="userSpaceOnUse"
       id="linearGradient4204"
       xlink:href="#linearGradient3936-9"
       inkscape:collect="always" />
    <linearGradient
       y2="701.33386"
       x2="406.88376"
       y1="701.33386"
       x1="316.88733"
       gradientTransform="translate(2.0482112,36.660679)"
       gradientUnits="userSpaceOnUse"
       id="linearGradient4206"
       xlink:href="#linearGradient3902-05"
       inkscape:collect="always" />
    <linearGradient
       y2="701.33386"
       x2="406.88376"
       y1="701.33386"
       x1="316.88733"
       gradientTransform="translate(2.0482283,36.660756)"
       gradientUnits="userSpaceOnUse"
       id="linearGradient4214"
       xlink:href="#linearGradient3902-0-1"
       inkscape:collect="always" />
    <linearGradient
       y2="701.33386"
       x2="406.88376"
       y1="701.33386"
       x1="316.88733"
       gradientTransform="translate(2.0482112,36.660679)"
       gradientUnits="userSpaceOnUse"
       id="linearGradient4216"
       xlink:href="#linearGradient3936-9"
       inkscape:collect="always" />
    <linearGradient
       y2="701.33386"
       x2="406.88376"
       y1="701.33386"
       x1="316.88733"
       gradientTransform="translate(2.0482112,36.660679)"
       gradientUnits="userSpaceOnUse"
       id="linearGradient4218"
       xlink:href="#linearGradient3902-05"
       inkscape:collect="always" />
    <linearGradient
       y2="701.33386"
       x2="406.88376"
       y1="701.33386"
       x1="316.88733"
       gradientTransform="translate(2.0482283,36.660756)"
       gradientUnits="userSpaceOnUse"
       id="linearGradient4224"
       xlink:href="#linearGradient3902-0-1"
       inkscape:collect="always" />
    <linearGradient
       y2="701.33386"
       x2="406.88376"
       y1="701.33386"
       x1="316.88733"
       gradientTransform="translate(2.0482112,36.660679)"
       gradientUnits="userSpaceOnUse"
       id="linearGradient4226"
       xlink:href="#linearGradient3936-9"
       inkscape:collect="always" />
    <linearGradient
       y2="701.33386"
       x2="406.88376"
       y1="701.33386"
       x1="316.88733"
       gradientTransform="translate(2.0482112,36.660679)"
       gradientUnits="userSpaceOnUse"
       id="linearGradient4228"
       xlink:href="#linearGradient3902-05"
       inkscape:collect="always" />
    <linearGradient
       y2="701.33386"
       x2="406.88376"
       y1="701.33386"
       x1="316.88733"
       gradientTransform="matrix(1,0,0,0.16666666,-9.0044438,647.03324)"
       gradientUnits="userSpaceOnUse"
       id="linearGradient4233"
       xlink:href="#linearGradient3902-05"
       inkscape:collect="always" />
    <linearGradient
       y2="701.33386"
       x2="406.88376"
       y1="701.33386"
       x1="316.88733"
       gradientTransform="matrix(1,0,0,0.16666666,-7.9776366,640.64932)"
       gradientUnits="userSpaceOnUse"
       id="linearGradient4236"
       xlink:href="#linearGradient3902-0-1"
       inkscape:collect="always" />
    <linearGradient
       gradientTransform="matrix(1,0,0,0.16666666,0,637.35185)"
       gradientUnits="userSpaceOnUse"
       y2="759.42224"
       x2="397.87933"
       y1="759.42224"
       x1="307.8829"
       id="linearGradient4252"
       xlink:href="#linearGradient4246"
       inkscape:collect="always" />
    <linearGradient
       gradientUnits="userSpaceOnUse"
       y2="774.16321"
       x2="397.8811"
       y1="774.16321"
       x1="307.8811"
       id="linearGradient4260"
       xlink:href="#linearGradient4254"
       inkscape:collect="always" />
    <linearGradient
       y2="759.42224"
       x2="397.87933"
       y1="759.42224"
       x1="307.8829"
       gradientTransform="matrix(1,0,0,0.16666666,1.0267814,630.96793)"
       gradientUnits="userSpaceOnUse"
       id="linearGradient4268"
       xlink:href="#linearGradient4246"
       inkscape:collect="always" />
    <linearGradient
       y2="701.33386"
       x2="406.88376"
       y1="701.33386"
       x1="316.88733"
       gradientTransform="matrix(1,0,0,0.16666666,-7.9776624,640.64932)"
       gradientUnits="userSpaceOnUse"
       id="linearGradient4270"
       xlink:href="#linearGradient3902-05"
       inkscape:collect="always" />
    <linearGradient
       y2="701.33386"
       x2="406.88376"
       y1="701.33386"
       x1="316.88733"
       gradientTransform="matrix(1,0,0,0.16666666,-7.9776366,640.64932)"
       gradientUnits="userSpaceOnUse"
       id="linearGradient4276"
       xlink:href="#linearGradient3902-0-1"
       inkscape:collect="always" />
    <linearGradient
       y2="759.42224"
       x2="397.87933"
       y1="759.42224"
       x1="307.8829"
       gradientTransform="matrix(1,0,0,0.16666666,1.0267814,630.96793)"
       gradientUnits="userSpaceOnUse"
       id="linearGradient4278"
       xlink:href="#linearGradient4246"
       inkscape:collect="always" />
    <linearGradient
       y2="701.33386"
       x2="406.88376"
       y1="701.33386"
       x1="316.88733"
       gradientTransform="matrix(1,0,0,0.16666666,-7.9776624,640.64932)"
       gradientUnits="userSpaceOnUse"
       id="linearGradient4280"
       xlink:href="#linearGradient3902-05"
       inkscape:collect="always" />
    <linearGradient
       y2="701.33386"
       x2="406.88376"
       y1="701.33386"
       x1="316.88733"
       gradientTransform="matrix(1,0,0,0.16666666,-7.9776366,640.64932)"
       gradientUnits="userSpaceOnUse"
       id="linearGradient4288"
       xlink:href="#linearGradient3902-0-1"
       inkscape:collect="always" />
    <linearGradient
       y2="759.42224"
       x2="397.87933"
       y1="759.42224"
       x1="307.8829"
       gradientTransform="matrix(1,0,0,0.16666666,1.0267814,630.96793)"
       gradientUnits="userSpaceOnUse"
       id="linearGradient4290"
       xlink:href="#linearGradient4246"
       inkscape:collect="always" />
    <linearGradient
       y2="701.33386"
       x2="406.88376"
       y1="701.33386"
       x1="316.88733"
       gradientTransform="matrix(1,0,0,0.16666666,-7.9776624,640.64932)"
       gradientUnits="userSpaceOnUse"
       id="linearGradient4292"
       xlink:href="#linearGradient3902-05"
       inkscape:collect="always" />
    <linearGradient
       y2="701.33386"
       x2="406.88376"
       y1="701.33386"
       x1="316.88733"
       gradientTransform="matrix(1,0,0,0.16666666,-7.9776366,640.64932)"
       gradientUnits="userSpaceOnUse"
       id="linearGradient4302"
       xlink:href="#linearGradient3902-0-1"
       inkscape:collect="always" />
    <linearGradient
       y2="759.42224"
       x2="397.87933"
       y1="759.42224"
       x1="307.8829"
       gradientTransform="matrix(1,0,0,0.16666666,1.0267814,630.96793)"
       gradientUnits="userSpaceOnUse"
       id="linearGradient4304"
       xlink:href="#linearGradient4246"
       inkscape:collect="always" />
    <linearGradient
       y2="701.33386"
       x2="406.88376"
       y1="701.33386"
       x1="316.88733"
       gradientTransform="matrix(1,0,0,0.16666666,-7.9776624,640.64932)"
       gradientUnits="userSpaceOnUse"
       id="linearGradient4306"
       xlink:href="#linearGradient3902-05"
       inkscape:collect="always" />
    <linearGradient
       y2="774.16321"
       x2="397.8811"
       y1="774.16321"
       x1="307.8811"
       gradientUnits="userSpaceOnUse"
       id="linearGradient4318"
       xlink:href="#linearGradient4254"
       inkscape:collect="always" />
    <linearGradient
       y2="701.33386"
       x2="406.88376"
       y1="701.33386"
       x1="316.88733"
       gradientTransform="matrix(1,0,0,0.16666666,-7.9776366,640.64932)"
       gradientUnits="userSpaceOnUse"
       id="linearGradient4320"
       xlink:href="#linearGradient3902-0-1"
       inkscape:collect="always" />
    <linearGradient
       y2="759.42224"
       x2="397.87933"
       y1="759.42224"
       x1="307.8829"
       gradientTransform="matrix(1,0,0,0.16666666,1.0267814,630.96793)"
       gradientUnits="userSpaceOnUse"
       id="linearGradient4322"
       xlink:href="#linearGradient4246"
       inkscape:collect="always" />
    <linearGradient
       y2="701.33386"
       x2="406.88376"
       y1="701.33386"
       x1="316.88733"
       gradientTransform="matrix(1,0,0,0.16666666,-7.9776624,640.64932)"
       gradientUnits="userSpaceOnUse"
       id="linearGradient4324"
       xlink:href="#linearGradient3902-05"
       inkscape:collect="always" />
    <linearGradient
       y2="717.80603"
       x2="405.09543"
       y1="717.80603"
       x1="315.09543"
       gradientTransform="translate(-0.03574039,0)"
       gradientUnits="userSpaceOnUse"
       id="linearGradient4326"
       xlink:href="#linearGradient3902"
       inkscape:collect="always" />
    <linearGradient
       y2="701.33386"
       x2="406.88376"
       y1="701.33386"
       x1="316.88733"
       gradientTransform="translate(2.0482283,36.660756)"
       gradientUnits="userSpaceOnUse"
       id="linearGradient4328"
       xlink:href="#linearGradient3902-0"
       inkscape:collect="always" />
    <linearGradient
       y2="701.33386"
       x2="406.88376"
       y1="701.33386"
       x1="316.88733"
       gradientTransform="translate(2.0482112,36.660679)"
       gradientUnits="userSpaceOnUse"
       id="linearGradient4330"
       xlink:href="#linearGradient3936"
       inkscape:collect="always" />
    <linearGradient
       y2="701.33386"
       x2="406.88376"
       y1="701.33386"
       x1="316.88733"
       gradientTransform="translate(2.0482112,36.660679)"
       gradientUnits="userSpaceOnUse"
       id="linearGradient4332"
       xlink:href="#linearGradient3902"
       inkscape:collect="always" />
    <linearGradient
       y2="717.80603"
       x2="405.09543"
       y1="717.80603"
       x1="315.09543"
       gradientTransform="translate(59.203218,-69.88273)"
       gradientUnits="userSpaceOnUse"
       id="linearGradient4342"
       xlink:href="#linearGradient3902"
       inkscape:collect="always" />
    <linearGradient
       y2="717.80603"
       x2="405.09543"
       y1="717.80603"
       x1="315.09543"
       gradientTransform="translate(46.001443,-74.015975)"
       gradientUnits="userSpaceOnUse"
       id="linearGradient4342-0"
       xlink:href="#linearGradient3902-75"
       inkscape:collect="always" />
    <linearGradient
       id="linearGradient3902-75"
       inkscape:collect="always">
      <stop
         id="stop3904-8"
         offset="0"
         style="stop-color:#999999;stop-opacity:1;" />
      <stop
         id="stop3906-17"
         offset="1"
         style="stop-color:#999999;stop-opacity:0;" />
    </linearGradient>
    <linearGradient
       y2="717.80603"
       x2="405.09543"
       y1="717.80603"
       x1="315.09543"
       gradientTransform="translate(59.203218,-69.88273)"
       gradientUnits="userSpaceOnUse"
       id="linearGradient4382"
       xlink:href="#linearGradient3902"
       inkscape:collect="always" />
    <linearGradient
       y2="701.33386"
       x2="406.88376"
       y1="701.33386"
       x1="316.88733"
       gradientTransform="translate(2.0482283,36.660756)"
       gradientUnits="userSpaceOnUse"
       id="linearGradient4384"
       xlink:href="#linearGradient3902-0"
       inkscape:collect="always" />
    <linearGradient
       y2="701.33386"
       x2="406.88376"
       y1="701.33386"
       x1="316.88733"
       gradientTransform="translate(2.0482112,36.660679)"
       gradientUnits="userSpaceOnUse"
       id="linearGradient4386"
       xlink:href="#linearGradient3936"
       inkscape:collect="always" />
    <linearGradient
       y2="701.33386"
       x2="406.88376"
       y1="701.33386"
       x1="316.88733"
       gradientTransform="translate(2.0482112,36.660679)"
       gradientUnits="userSpaceOnUse"
       id="linearGradient4388"
       xlink:href="#linearGradient3902"
       inkscape:collect="always" />
    <linearGradient
       y2="717.80603"
       x2="405.09543"
       y1="717.80603"
       x1="315.09543"
       gradientTransform="translate(59.203218,-69.88273)"
       gradientUnits="userSpaceOnUse"
       id="linearGradient4402"
       xlink:href="#linearGradient3902"
       inkscape:collect="always" />
    <linearGradient
       y2="701.33386"
       x2="406.88376"
       y1="701.33386"
       x1="316.88733"
       gradientTransform="translate(2.0482283,36.660756)"
       gradientUnits="userSpaceOnUse"
       id="linearGradient4404"
       xlink:href="#linearGradient3902-0"
       inkscape:collect="always" />
    <linearGradient
       y2="701.33386"
       x2="406.88376"
       y1="701.33386"
       x1="316.88733"
       gradientTransform="translate(2.0482112,36.660679)"
       gradientUnits="userSpaceOnUse"
       id="linearGradient4406"
       xlink:href="#linearGradient3936"
       inkscape:collect="always" />
    <linearGradient
       y2="701.33386"
       x2="406.88376"
       y1="701.33386"
       x1="316.88733"
       gradientTransform="translate(2.0482112,36.660679)"
       gradientUnits="userSpaceOnUse"
       id="linearGradient4408"
       xlink:href="#linearGradient3902"
       inkscape:collect="always" />
    <inkscape:path-effect
       is_visible="true"
       id="path-effect4439-8"
       effect="spiro" />
    <inkscape:path-effect
       is_visible="true"
       id="path-effect4439-8-1"
       effect="spiro" />
  </defs>
  <metadata
     id="metadata7">
    <rdf:RDF>
      <cc:Work
         rdf:about="">
        <dc:format>image/svg+xml</dc:format>
        <dc:type
           rdf:resource="http://purl.org/dc/dcmitype/StillImage" />
        <dc:title />
      </cc:Work>
    </rdf:RDF>
  </metadata>
  <g
     transform="translate(-250.90847,-607.5449)"
     id="layer1"
     inkscape:groupmode="layer"
     inkscape:label="Layer 1">
    <g
       id="g4410">
      <g
         id="g4308"
         transform="matrix(0.97916667,0,0,1,-49.532722,-124.49612)">
        <path
           sodipodi:nodetypes="cscc"
           inkscape:connector-curvature="0"
           id="path2987-2-6"
           d="m 397.65611,764.27632 c 0,10.92072 -20.04644,19.77372 -44.775,19.77372 -24.72855,0 -44.775,-8.853 -44.775,-19.77372 21.25328,1.5e-4 72.55328,1.5e-4 89.55,0 z"
           style="color:#000000;fill:url(#linearGradient4318);fill-opacity:1;fill-rule:nonzero;stroke:#000000;stroke-width:0.45476201;stroke-linecap:round;stroke-linejoin:round;stroke-miterlimit:4;stroke-opacity:1;stroke-dashoffset:0;marker:none;visibility:visible;display:inline;overflow:visible;enable-background:accumulate" />
        <g
           transform="translate(-1.3392857,6.0714285)"
           id="g4294">
          <g
             id="g4282"
             transform="translate(1.5178629,0.232725)">
            <g
               transform="translate(-1.2053785,0.20774719)"
               id="g4272">
              <rect
                 style="color:#000000;fill:#ffffff;fill-opacity:1;fill-rule:nonzero;stroke:url(#linearGradient4320);stroke-width:0;marker:none;visibility:visible;display:inline;overflow:visible;enable-background:accumulate"
                 id="rect3805-89-1"
                 width="89.996437"
                 height="1.8"
                 x="308.9097"
                 y="756.63831" />
              <rect
                 style="color:#000000;fill:url(#linearGradient4322);fill-opacity:1;fill-rule:nonzero;stroke:url(#linearGradient4324);stroke-width:0;marker:none;visibility:visible;display:inline;overflow:visible;enable-background:accumulate"
                 id="rect3805-3"
                 width="89.996437"
                 height="1.8"
                 x="308.9097"
                 y="756.63831" />
            </g>
            <path
               inkscape:connector-curvature="0"
               inkscape:original-d="m 307.92932,756.88233 0,1.72745"
               inkscape:path-effect="#path-effect3759-4"
               id="path3757-7"
               d="m 307.92932,756.88233 0,1.72745"
               style="color:#000000;fill:none;stroke:#000000;stroke-width:0.45476201;stroke-linecap:butt;stroke-linejoin:miter;stroke-miterlimit:4;stroke-opacity:1;stroke-dasharray:none;stroke-dashoffset:0;marker:none;visibility:visible;display:inline;overflow:visible;enable-background:accumulate" />
          </g>
          <path
             style="color:#000000;fill:none;stroke:#000000;stroke-width:0.45476201;stroke-linecap:butt;stroke-linejoin:miter;stroke-miterlimit:4;stroke-opacity:1;stroke-dasharray:none;stroke-dashoffset:0;marker:none;visibility:visible;display:inline;overflow:visible;enable-background:accumulate"
             d="m 398.99362,757.11505 0,1.72745"
             id="path3757-5-1"
             inkscape:path-effect="#path-effect3759-1-6"
             inkscape:original-d="m 398.99362,757.11505 0,1.72745"
             inkscape:connector-curvature="0" />
        </g>
      </g>
      <g
         id="g4390"
         transform="translate(0.03558981,0)">
        <g
           transform="translate(-123.33754,-1.5152288)"
           id="g4378">
          <path
             style="color:#000000;fill:#ffffff;fill-opacity:1;fill-rule:nonzero;stroke:#000000;stroke-width:0.44999999;stroke-linecap:round;stroke-linejoin:round;stroke-miterlimit:4;stroke-opacity:1;stroke-dashoffset:0;marker:none;visibility:visible;display:inline;overflow:visible;enable-background:accumulate"
             d="m 464.07364,638.03646 c 0,10.92071 -20.04644,19.77372 -44.77499,19.77372 -24.72855,0 -44.775,-8.853 -44.775,-19.77372 21.25328,1.4e-4 72.55328,1.4e-4 89.55,0 z"
             id="path2987-2-5"
             inkscape:connector-curvature="0"
             sodipodi:nodetypes="cscc" />
          <path
             style="color:#000000;fill:url(#linearGradient4402);fill-opacity:1;fill-rule:nonzero;stroke:#000000;stroke-width:0.44999999;stroke-linecap:round;stroke-linejoin:round;stroke-miterlimit:4;stroke-opacity:1;stroke-dashoffset:0;marker:none;visibility:visible;display:inline;overflow:visible;enable-background:accumulate"
             d="m 464.07364,638.03645 c 0,10.92072 -20.04644,19.77372 -44.77499,19.77372 -24.72855,0 -44.775,-8.853 -44.775,-19.77372 21.25328,1.5e-4 72.55328,1.5e-4 89.55,0 z"
             id="path2987-2"
             inkscape:connector-curvature="0"
             sodipodi:nodetypes="cscc" />
        </g>
        <g
           transform="translate(-71.726858,-105.24059)"
           id="g4016">
          <g
             id="g4004"
             transform="translate(11.069183,0.233035)">
            <g
               transform="translate(-7.3149769,-1.4124974)"
               id="g3994">
              <rect
                 style="color:#000000;fill:#ffffff;fill-opacity:1;fill-rule:nonzero;stroke:url(#linearGradient4404);stroke-width:0;marker:none;visibility:visible;display:inline;overflow:visible;enable-background:accumulate"
                 id="rect3805-89"
                 width="89.996437"
                 height="10.8"
                 x="318.93555"
                 y="732.59454" />
              <rect
                 style="color:#000000;fill:url(#linearGradient4406);fill-opacity:1;fill-rule:nonzero;stroke:url(#linearGradient4408);stroke-width:0;marker:none;visibility:visible;display:inline;overflow:visible;enable-background:accumulate"
                 id="rect3805"
                 width="89.996437"
                 height="10.8"
                 x="318.93555"
                 y="732.59454" />
            </g>
            <path
               inkscape:connector-curvature="0"
               inkscape:original-d="m 311.84557,731.2249 0,10.71429"
               inkscape:path-effect="#path-effect3759"
               id="path3757"
               d="m 311.84557,731.2249 0,10.71429"
               style="color:#000000;fill:none;stroke:#000000;stroke-width:0.45000002;stroke-linecap:butt;stroke-linejoin:miter;stroke-miterlimit:4;stroke-opacity:1;stroke-dasharray:none;stroke-dashoffset:0;marker:none;visibility:visible;display:inline;overflow:visible;enable-background:accumulate" />
          </g>
          <path
             style="color:#000000;fill:none;stroke:#000000;stroke-width:0.45000002;stroke-linecap:butt;stroke-linejoin:miter;stroke-miterlimit:4;stroke-opacity:1;stroke-dasharray:none;stroke-dashoffset:0;marker:none;visibility:visible;display:inline;overflow:visible;enable-background:accumulate"
             d="m 412.46119,731.45793 0,10.7143"
             id="path3757-5"
             inkscape:path-effect="#path-effect3759-1"
             inkscape:original-d="m 412.46119,731.45793 0,10.7143"
             inkscape:connector-curvature="0" />
        </g>
      </g>
      <path
         sodipodi:type="arc"
         style="color:#000000;fill:#f2f2f2;fill-opacity:1;fill-rule:nonzero;stroke:#000000;stroke-width:0.20416638;stroke-linecap:round;stroke-linejoin:round;stroke-miterlimit:4;stroke-opacity:1;stroke-dasharray:none;stroke-dashoffset:0;marker:none;visibility:visible;display:inline;overflow:visible;enable-background:accumulate"
         id="path2987"
         sodipodi:cx="63.43819"
         sodipodi:cy="31.95702"
         sodipodi:rx="13.5"
         sodipodi:ry="13.5"
         d="m 76.93819,31.95702 c 0,7.455844 -6.044155,13.5 -13.5,13.5 -7.455844,0 -13.5,-6.044156 -13.5,-13.5 0,-7.455844 6.044156,-13.5 13.5,-13.5 7.455845,0 13.5,6.044156 13.5,13.5 z"
         transform="matrix(3.3166667,0,0,1.4647203,85.593366,580.67644)" />
    </g>
    <flowRoot
       style="font-size:12px;font-style:normal;font-variant:normal;font-weight:normal;font-stretch:normal;line-height:125%;letter-spacing:0px;word-spacing:0px;fill:#000000;fill-opacity:1;stroke:none;font-family:Sans;-inkscape-font-specification:Helvetica"
       id="flowRoot5869"
       xml:space="preserve"><flowRegion
         id="flowRegion5871"><rect
           y="-107.33654"
           x="-139.14851"
           height="81.569817"
           width="107.3287"
           id="rect5873" /></flowRegion><flowPara
         id="flowPara5875" /></flowRoot>    <g
       id="g6568"
       transform="translate(117.14286,-30.892857)">
      <g
         style="font-size:12px;font-style:normal;font-variant:normal;font-weight:normal;font-stretch:normal;line-height:125%;letter-spacing:0px;word-spacing:0px;fill:#000000;fill-opacity:1;stroke:none;font-family:Sans;-inkscape-font-specification:Helvetica"
         id="text4433"
         transform="matrix(1,0,0,-1,-9.5964519,1277.7456)">
        <path
           d="m 176.31005,624.11727 c 0,0 -0.36576,-1.5855 -0.36576,-1.5855 -0.21437,0.48089 -0.47605,0.83499 -0.78583,1.06696 -0.30408,0.23003 -0.65903,0.34433 -1.06675,0.34434 -0.80289,-1e-5 -1.53111,-0.3837 -2.19849,-1.16729 -0.68486,-0.80083 -1.28438,-2.00221 -1.80507,-3.65427 -0.54912,-1.74226 -0.74779,-3.147 -0.56752,-4.16109 0.18816,-1.04041 0.76277,-1.57337 1.71925,-1.57337 0.4857,0 0.98471,0.16149 1.49323,0.48209 0.50727,0.31748 1.02161,0.79128 1.53911,1.41451 0,0 -0.49015,-2.12471 -0.49015,-2.12471 -0.51655,-0.50324 -1.03455,-0.88575 -1.55101,-1.14321 -0.51665,-0.25944 -1.02966,-0.38991 -1.53605,-0.38991 -1.30051,0 -2.09761,0.7434 -2.38177,2.18218 -0.27005,1.38455 -0.0259,3.17984 0.68532,5.31351 0.66579,1.99737 1.47293,3.4791 2.42716,4.51406 0.92136,1.00246 1.88987,1.49024 2.93029,1.49025 0.41124,-10e-6 0.77646,-0.0838 1.09713,-0.25218 0.3269,-0.16472 0.61228,-0.41604 0.85691,-0.75637"
           id="path4442"
           inkscape:connector-curvature="0" />
        <path
           d="m 180.32959,618.73159 c 0.20519,-0.12813 0.38431,-0.40387 0.53835,-0.83107 0.15972,-0.43326 0.30079,-1.03911 0.4238,-1.82763 0,0 0.66895,-4.13262 0.66895,-4.13262 0,0 -1.2429,0 -1.2429,0 0,0 -0.55054,3.89408 -0.55054,3.89408 -0.13055,0.94351 -0.29542,1.55401 -0.49604,1.8503 -0.19525,0.29345 -0.50019,0.43912 -0.91622,0.43912 0,0 -1.14412,0 -1.14412,0 0,0 -1.15447,-6.1835 -1.15447,-6.1835 0,0 -1.15698,0 -1.15698,0 0,0 2.65029,12.99663 2.65029,12.99663 0,0 2.10657,0 2.10657,0 0.78843,0 1.34153,-0.25159 1.6638,-0.76181 0.32835,-0.51991 0.42914,-1.3235 0.29379,-2.43539 -0.0913,-0.74983 -0.27911,-1.38707 -0.56535,-1.90365 -0.28794,-0.52575 -0.66142,-0.89588 -1.11893,-1.10446 m -1.66909,5.0142 c 0,0 -0.78039,-4.17993 -0.78039,-4.17993 0,0 1.2897,0 1.2897,0 0.49421,-1e-5 0.89499,0.18882 1.19942,0.56292 0.30472,0.37488 0.5052,0.91491 0.60258,1.61092 0.0951,0.67952 0.0453,1.17995 -0.14596,1.51036 -0.18512,0.33145 -0.50663,0.49571 -0.96616,0.49573 0,0 -1.19919,0 -1.19919,0"
           id="path4444"
           inkscape:connector-curvature="0" />
        <path
           d="m 184.67348,613.72628 c 0,0 3.93067,0 3.93067,0 0,0 -0.0108,-1.78601 -0.0108,-1.78601 0,0 -5.42984,0 -5.42984,0 0,0 0.15516,1.78601 0.15516,1.78601 0.49182,0.80137 1.14097,1.84518 1.93213,3.10731 0.7641,1.21891 1.22974,1.97928 1.41757,2.31374 0.35128,0.61859 0.59413,1.13086 0.73248,1.54198 0.13985,0.41078 0.21371,0.80789 0.22294,1.19177 0.0148,0.61492 -0.10741,1.10647 -0.36373,1.48074 -0.24979,0.36928 -0.58369,0.55211 -1.00417,0.55211 -0.29811,0 -0.61836,-0.0804 -0.96224,-0.24158 -0.34273,-0.16224 -0.71794,-0.40985 -1.12778,-0.74513 0,0 0.12898,1.49941 0.12898,1.49941 0.39768,0.23269 0.76324,0.4071 1.09812,0.52431 0.33344,0.11676 0.63466,0.17487 0.90474,0.17488 0.71202,-10e-6 1.27265,-0.27096 1.68813,-0.82108 0.42399,-0.56141 0.636,-1.32975 0.62932,-2.32198 -0.003,-0.48291 -0.0642,-0.94983 -0.18411,-1.39978 -0.11839,-0.45143 -0.3362,-0.99452 -0.65716,-1.63415 -0.0892,-0.16786 -0.37475,-0.65943 -0.86627,-1.49066 -0.50489,-0.84806 -1.24068,-2.07721 -2.23413,-3.73189"
           id="path4446"
           inkscape:connector-curvature="0" />
        <path
           d="m 193.29729,623.67235 c 0,0 -2.18814,-6.55247 -2.18814,-6.55247 0,0 2.69592,0 2.69592,0 0,0 -0.50778,6.55247 -0.50778,6.55247 m -0.34284,1.26455 c 0,0 1.1734,0 1.1734,0 0,0 0.73972,-7.81702 0.73972,-7.81702 0,0 1.12594,0 1.12594,0 0,0 0.17864,-1.58384 0.17864,-1.58384 0,0 -1.1547,0 -1.1547,0 0,0 0.34026,-3.59577 0.34026,-3.59577 0,0 -1.15126,0 -1.15126,0 0,0 -0.27865,3.59577 -0.27865,3.59577 0,0 -3.65383,0 -3.65383,0 0,0 -0.0367,1.83107 -0.0367,1.83107 0,0 2.71717,7.56979 2.71717,7.56979"
           id="path4448"
           inkscape:connector-curvature="0" />
        <path
           d="m 196.66868,624.9369 c 0,0 3.66341,0 3.66341,0 0,0 0.25523,-1.22046 0.25523,-1.22046 0,0 -2.87203,0 -2.87203,0 0,0 0.44413,-2.82371 0.44413,-2.82371 0.13268,0.081 0.2685,0.1402 0.40757,0.17784 0.138,0.0429 0.27941,0.0644 0.42444,0.0644 0.82396,-2e-5 1.54962,-0.36955 2.18912,-1.12293 0.65623,-0.7731 1.14059,-1.85269 1.45057,-3.27136 0.3347,-1.53182 0.32893,-2.77663 -0.0374,-3.69639 -0.37822,-0.93892 -1.09505,-1.41845 -2.14235,-1.41845 -0.36062,0 -0.73814,0.0581 -1.1315,0.17376 -0.38822,0.11541 -0.79661,0.28778 -1.22395,0.51624 0,0 -0.2857,2.09847 -0.2857,2.09847 0.37744,-0.32875 0.75743,-0.57581 1.13849,-0.73928 0.38296,-0.16421 0.77494,-0.24675 1.17446,-0.24675 0.64596,0 1.09927,0.31155 1.35624,0.92589 0.25218,0.6029 0.27523,1.40338 0.0774,2.38643 -0.19182,0.953 -0.51378,1.68706 -0.96427,2.21682 -0.4427,0.52059 -0.95316,0.77752 -1.53711,0.77753 -0.27341,-10e-6 -0.5387,-0.0507 -0.79657,-0.1522 -0.25535,-0.10188 -0.51002,-0.2611 -0.76476,-0.47854 0,0 -0.82542,5.83263 -0.82542,5.83263"
           id="path4450"
           inkscape:connector-curvature="0" />
        <path
           d="m 204.95414,623.98673 c -0.48887,-10e-6 -0.75422,-0.37572 -0.79692,-1.14271 -0.042,-0.7833 0.15249,-2.0054 0.6035,-3.72251 0.4768,-1.81527 0.9944,-3.25207 1.54352,-4.24981 0.56857,-1.02293 1.1514,-1.54672 1.7348,-1.5467 0.58714,-2e-5 0.86684,0.52377 0.83975,1.5467 -0.0247,0.99774 -0.33685,2.43454 -0.91067,4.24981 -0.54281,1.71711 -1.05724,2.93921 -1.55578,3.72251 -0.48341,0.76699 -0.96619,1.1427 -1.4582,1.14271 m -0.32959,1.13909 c 0.77034,-10e-6 1.50476,-0.4665 2.22171,-1.42407 0.74415,-0.98678 1.45725,-2.48649 2.15518,-4.58024 0.74821,-2.24466 1.11643,-4.07589 1.06017,-5.40546 -0.0571,-1.37881 -0.56801,-2.09023 -1.53092,-2.09023 -0.96292,0 -1.88742,0.71142 -2.74609,2.09023 -0.82191,1.32957 -1.51158,3.1608 -2.06231,5.40546 -0.51372,2.09375 -0.67007,3.59346 -0.50009,4.58024 0.16599,0.95757 0.63202,1.42406 1.40235,1.42407"
           id="path4452"
           inkscape:connector-curvature="0" />
      </g>
      <g
         transform="matrix(0.2417099,0,0,-0.38268456,151.76795,429.9927)"
         style="font-size:10px;font-style:normal;font-variant:normal;font-weight:normal;font-stretch:normal;line-height:125%;letter-spacing:0px;word-spacing:0px;fill:#000000;fill-opacity:1;stroke:none;font-family:Sans;-inkscape-font-specification:Helvetica"
         id="text6237">
        <path
           inkscape:connector-curvature="0"
           d="m 109.2146,-628.81752 c 1.49134,-0.17543 2.63422,-0.54373 3.43322,-1.11208 0.82495,-0.57926 1.21082,-1.3099 1.14435,-2.20247 -0.10593,-1.42109 -1.06327,-2.56557 -2.90306,-3.40036 -1.88738,-0.85638 -4.50828,-1.29294 -7.82578,-1.29294 -1.11379,0 -2.24502,0.0689 -3.390222,0.20641 -1.130928,0.1297 -2.277257,0.32684 -3.435471,0.59029 0,0 0.670646,2.01194 0.670646,2.01194 0.849185,-0.32855 1.823486,-0.57884 2.920685,-0.74905 1.102922,-0.17115 2.285062,-0.257 3.542052,-0.257 2.19107,0 3.90138,0.257 5.11671,0.76499 1.20789,0.50018 1.86428,1.21351 1.98053,2.12576 0.1044,0.81916 -0.31688,1.44368 -1.25159,1.88464 -0.90979,0.4405 -2.23244,0.65838 -3.97783,0.65839 0,0 -2.7609,0 -2.7609,0 0,0 0.37363,1.40779 0.37363,1.40779 0,0 2.82036,0 2.82036,0 1.53931,0 2.74488,0.16239 3.60952,0.48465 0.85595,0.32405 1.32104,0.7823 1.40116,1.36838 0.0805,0.58948 -0.26175,1.03238 -1.01943,1.33536 -0.73895,0.30456 -1.84194,0.45561 -3.31502,0.45562 -0.80441,-10e-6 -1.67787,-0.0438 -2.62265,-0.13152 -0.94781,-0.088 -2.00604,-0.22552 -3.17832,-0.41318 0,0 0.42006,1.30663 0.42006,1.30663 1.14457,0.1508 2.20095,0.26336 3.17193,0.33815 0.97774,0.0746 1.88738,0.11175 2.731,0.11175 2.18007,-10e-6 3.87025,-0.24515 5.08702,-0.74216 1.23973,-0.50133 1.83128,-1.19589 1.75574,-2.09802 -0.0541,-0.64586 -0.46253,-1.20435 -1.23361,-1.66991 -0.78291,-0.46756 -1.87214,-0.7965 -3.26474,-0.9821"
           id="path6263" />
        <path
           inkscape:connector-curvature="0"
           d="m 126.75085,-636.51091 c 0,0 -9.73408,12.99665 -9.73408,12.99665 0,0 3.01048,0 3.01048,0 0,0 8.36416,-10.54256 8.36416,-10.54256 0,0 5.14737,10.54256 5.14737,10.54256 0,0 2.99625,0 2.99625,0 0,0 -5.73322,-12.99665 -5.73322,-12.99665 0,0 -4.05096,0 -4.05096,0"
           id="path6265" />
      </g>
      <path
         inkscape:connector-curvature="0"
         d="m 175.85714,645.54075 9,0 m -4.5,-4.5 0,9"
         inkscape:original-d="m 175.85714,645.54075 9,0 m -4.5,-4.5 c 0,9 0,9 0,9"
         inkscape:path-effect="#path-effect6565"
         style="color:#000000;fill:none;stroke:#000000;stroke-width:0.89999998;stroke-linecap:butt;stroke-linejoin:miter;stroke-miterlimit:4;stroke-opacity:1;stroke-dasharray:none;stroke-dashoffset:0;marker:none;visibility:visible;display:inline;overflow:visible;enable-background:accumulate"
         id="path6563" />
    </g>
  </g>
</svg>
