<?xml version="1.0" encoding="UTF-8" standalone="no"?>
<!-- Created with Inkscape (http://www.inkscape.org/) -->

<svg
   xmlns:ns0="http://www.iki.fi/pav/software/textext/"
   xmlns:osb="http://www.openswatchbook.org/uri/2009/osb"
   xmlns:dc="http://purl.org/dc/elements/1.1/"
   xmlns:cc="http://creativecommons.org/ns#"
   xmlns:rdf="http://www.w3.org/1999/02/22-rdf-syntax-ns#"
   xmlns:svg="http://www.w3.org/2000/svg"
   xmlns="http://www.w3.org/2000/svg"
   xmlns:xlink="http://www.w3.org/1999/xlink"
   xmlns:sodipodi="http://sodipodi.sourceforge.net/DTD/sodipodi-0.dtd"
   xmlns:inkscape="http://www.inkscape.org/namespaces/inkscape"
   width="472.02832"
   height="247.00195"
   id="svg2"
   version="1.1"
   inkscape:version="0.48.4 r9939"
   sodipodi:docname="curout_plot.svg">
  <sodipodi:namedview
     id="base"
     pagecolor="#ffffff"
     bordercolor="#666666"
     borderopacity="1.0"
     inkscape:pageopacity="0.0"
     inkscape:pageshadow="2"
     inkscape:zoom="1.4"
     inkscape:cx="167.89304"
     inkscape:cy="75.958122"
     inkscape:document-units="in"
     inkscape:current-layer="layer1"
     showgrid="true"
     inkscape:window-width="1394"
     inkscape:window-height="913"
     inkscape:window-x="131"
     inkscape:window-y="92"
     inkscape:window-maximized="0"
     units="in"
     fit-margin-top="0"
     fit-margin-left="0"
     fit-margin-right="0"
     fit-margin-bottom="0">
    <inkscape:grid
       type="xygrid"
       id="grid2985"
       units="in"
       empspacing="5"
       visible="true"
       enabled="true"
       snapvisiblegridlinesonly="true"
       spacingx="0.01in"
       spacingy="0.01in"
       originx="-2.3560221in"
       originy="-3.2879991in" />
  </sodipodi:namedview>
  <defs
     id="defs4">
    <inkscape:path-effect
       effect="spiro"
       id="path-effect4981"
       is_visible="true" />
    <inkscape:path-effect
       is_visible="true"
       id="path-effect4631"
       effect="spiro" />
    <inkscape:path-effect
       is_visible="true"
       id="path-effect4617"
       effect="spiro" />
    <marker
       inkscape:stockid="Arrow2Mstart"
       orient="auto"
       refY="0"
       refX="0"
       id="Arrow2Mstart"
       style="overflow:visible">
      <path
         id="path3787"
         style="fill-rule:evenodd;stroke-width:0.625;stroke-linejoin:round"
         d="M 8.7185878,4.0337352 -2.2072895,0.01601326 8.7185884,-4.0017078 c -1.7454984,2.3720609 -1.7354408,5.6174519 -6e-7,8.035443 z"
         transform="scale(0.6,0.6)"
         inkscape:connector-curvature="0" />
    </marker>
    <marker
       inkscape:stockid="Arrow2Mend"
       orient="auto"
       refY="0"
       refX="0"
       id="Arrow2Mend"
       style="overflow:visible">
      <path
         id="path3790"
         style="fill-rule:evenodd;stroke-width:0.625;stroke-linejoin:round"
         d="M 8.7185878,4.0337352 -2.2072895,0.01601326 8.7185884,-4.0017078 c -1.7454984,2.3720609 -1.7354408,5.6174519 -6e-7,8.035443 z"
         transform="scale(-0.6,-0.6)"
         inkscape:connector-curvature="0" />
    </marker>
    <inkscape:path-effect
       effect="spiro"
       id="path-effect2989"
       is_visible="true" />
    <linearGradient
       id="linearGradient3776"
       osb:paint="gradient">
      <stop
         style="stop-color:#0000ff;stop-opacity:1;"
         offset="0"
         id="stop3778" />
      <stop
         style="stop-color:#0000ff;stop-opacity:0;"
         offset="1"
         id="stop3780" />
    </linearGradient>
    <inkscape:perspective
       id="perspective10"
       inkscape:persp3d-origin="372.04724 : 350.78739 : 1"
       inkscape:vp_z="744.09448 : 526.18109 : 1"
       inkscape:vp_y="0 : 1000 : 0"
       inkscape:vp_x="0 : 526.18109 : 1"
       sodipodi:type="inkscape:persp3d" />
    <inkscape:path-effect
       is_visible="true"
       id="path-effect4631-4"
       effect="spiro" />
    <inkscape:path-effect
       effect="spiro"
       id="path-effect8206-7-8-9"
       is_visible="true" />
    <marker
       inkscape:stockid="Arrow2Mend"
       orient="auto"
       refY="0"
       refX="0"
       id="Arrow2Mend-9"
       style="overflow:visible">
      <path
         id="path8747-4"
         style="fill-rule:evenodd;stroke-width:0.625;stroke-linejoin:round"
         d="M 8.7185878,4.0337352 -2.2072895,0.01601326 8.7185884,-4.0017078 c -1.7454984,2.3720609 -1.7354408,5.6174519 -6e-7,8.035443 z"
         transform="scale(-0.6,-0.6)"
         inkscape:connector-curvature="0" />
    </marker>
    <marker
       inkscape:stockid="Arrow2Mstart"
       orient="auto"
       refY="0"
       refX="0"
       id="Arrow2Mstart-3"
       style="overflow:visible">
      <path
         id="path8744-2"
         style="fill-rule:evenodd;stroke-width:0.625;stroke-linejoin:round"
         d="M 8.7185878,4.0337352 -2.2072895,0.01601326 8.7185884,-4.0017078 c -1.7454984,2.3720609 -1.7354408,5.6174519 -6e-7,8.035443 z"
         transform="scale(0.6,0.6)"
         inkscape:connector-curvature="0" />
    </marker>
    <inkscape:path-effect
       effect="spiro"
       id="path-effect8206-7-8"
       is_visible="true" />
    <marker
       inkscape:stockid="Arrow2Mend"
       orient="auto"
       refY="0"
       refX="0"
       id="Arrow2Mend-5"
       style="overflow:visible">
      <path
         id="path8747"
         style="fill-rule:evenodd;stroke-width:0.625;stroke-linejoin:round"
         d="M 8.7185878,4.0337352 -2.2072895,0.01601326 8.7185884,-4.0017078 c -1.7454984,2.3720609 -1.7354408,5.6174519 -6e-7,8.035443 z"
         transform="scale(-0.6,-0.6)"
         inkscape:connector-curvature="0" />
    </marker>
    <marker
       inkscape:stockid="Arrow2Mstart"
       orient="auto"
       refY="0"
       refX="0"
       id="Arrow2Mstart-7"
       style="overflow:visible">
      <path
         id="path8744"
         style="fill-rule:evenodd;stroke-width:0.625;stroke-linejoin:round"
         d="M 8.7185878,4.0337352 -2.2072895,0.01601326 8.7185884,-4.0017078 c -1.7454984,2.3720609 -1.7354408,5.6174519 -6e-7,8.035443 z"
         transform="scale(0.6,0.6)"
         inkscape:connector-curvature="0" />
    </marker>
    <inkscape:perspective
       id="perspective10-8"
       inkscape:persp3d-origin="372.04724 : 350.78739 : 1"
       inkscape:vp_z="744.09448 : 526.18109 : 1"
       inkscape:vp_y="0 : 1000 : 0"
       inkscape:vp_x="0 : 526.18109 : 1"
       sodipodi:type="inkscape:persp3d" />
    <linearGradient
       id="linearGradient3776-0"
       osb:paint="gradient">
      <stop
         style="stop-color:#0000ff;stop-opacity:1;"
         offset="0"
         id="stop3778-7" />
      <stop
         style="stop-color:#0000ff;stop-opacity:0;"
         offset="1"
         id="stop3780-8" />
    </linearGradient>
    <marker
       inkscape:stockid="Arrow2Mstart"
       orient="auto"
       refY="0"
       refX="0"
       id="Arrow2Mstart-2"
       style="overflow:visible">
      <path
         id="path3787-6"
         style="fill-rule:evenodd;stroke-width:0.625;stroke-linejoin:round"
         d="M 8.7185878,4.0337352 -2.2072895,0.01601326 8.7185884,-4.0017078 c -1.7454984,2.3720609 -1.7354408,5.6174519 -6e-7,8.035443 z"
         transform="scale(0.6,0.6)"
         inkscape:connector-curvature="0" />
    </marker>
    <marker
       inkscape:stockid="Arrow2Mend"
       orient="auto"
       refY="0"
       refX="0"
       id="Arrow2Mend-6"
       style="overflow:visible">
      <path
         id="path3790-8"
         style="fill-rule:evenodd;stroke-width:0.625;stroke-linejoin:round"
         d="M 8.7185878,4.0337352 -2.2072895,0.01601326 8.7185884,-4.0017078 c -1.7454984,2.3720609 -1.7354408,5.6174519 -6e-7,8.035443 z"
         transform="scale(-0.6,-0.6)"
         inkscape:connector-curvature="0" />
    </marker>
    <inkscape:path-effect
       effect="spiro"
       id="path-effect8206-7-8-9-8"
       is_visible="true" />
  </defs>
  <metadata
     id="metadata7">
    <rdf:RDF>
      <cc:Work
         rdf:about="">
        <dc:format>image/svg+xml</dc:format>
        <dc:type
           rdf:resource="http://purl.org/dc/dcmitype/StillImage" />
        <dc:title />
      </cc:Work>
    </rdf:RDF>
  </metadata>
  <g
     inkscape:label="Layer 1"
     inkscape:groupmode="layer"
     id="layer1"
     transform="translate(-212.04199,-509.44031)">
    <path
       style="color:#000000;fill:none;stroke:#000000;stroke-width:0.89999998;stroke-linecap:butt;stroke-linejoin:miter;stroke-miterlimit:4;stroke-opacity:1;stroke-dasharray:none;stroke-dashoffset:0;marker:none;marker-start:url(#Arrow2Mstart);marker-end:url(#Arrow2Mend);visibility:visible;display:inline;overflow:visible;enable-background:accumulate"
       d="m 315,512.36218 0,193.5 346.5,0"
       id="path2987"
       inkscape:path-effect="#path-effect2989"
       inkscape:original-d="m 315,512.36218 0,193.5 346.5,0"
       inkscape:connector-curvature="0"
       sodipodi:nodetypes="ccc" />
    <g
       id="g4516">
      <text
         sodipodi:linespacing="125%"
         id="text4408"
         y="516.86218"
         x="270"
         style="font-size:10px;font-style:normal;font-variant:normal;font-weight:normal;font-stretch:normal;line-height:125%;letter-spacing:0px;word-spacing:0px;fill:#000000;fill-opacity:1;stroke:none;font-family:Sans;-inkscape-font-specification:Helvetica"
         xml:space="preserve"><tspan
           y="516.86218"
           x="270"
           id="tspan4410"
           sodipodi:role="line">Output</tspan><tspan
           id="tspan4412"
           y="529.36218"
           x="270"
           sodipodi:role="line">current</tspan><tspan
           id="tspan4414"
           y="541.86218"
           x="270"
           sodipodi:role="line" /></text>
      <g
         id="g4436"
         ns0:preamble=""
         ns0:text="$(\\mu A)$"
         transform="translate(54.295699,405.57624)">
        <defs
           id="defs4438">
          <g
             id="g4440">
            <symbol
               id="textext-837bbd54-0"
               overflow="visible"
               style="overflow:visible">
              <path
                 id="path4443"
                 d=""
                 style="stroke:none"
                 inkscape:connector-curvature="0" />
            </symbol>
            <symbol
               id="textext-837bbd54-1"
               overflow="visible"
               style="overflow:visible">
              <path
                 id="path4446"
                 d="m 3.296875,2.390625 c 0,-0.03125 0,-0.046875 -0.171875,-0.21875 C 1.890625,0.921875 1.5625,-0.96875 1.5625,-2.5 c 0,-1.734375 0.375,-3.46875 1.609375,-4.703125 0.125,-0.125 0.125,-0.140625 0.125,-0.171875 0,-0.078125 -0.03125,-0.109375 -0.09375,-0.109375 -0.109375,0 -1,0.6875 -1.59375,1.953125 -0.5,1.09375 -0.625,2.203125 -0.625,3.03125 0,0.78125 0.109375,1.984375 0.65625,3.125 C 2.25,1.84375 3.09375,2.5 3.203125,2.5 c 0.0625,0 0.09375,-0.03125 0.09375,-0.109375 z"
                 style="stroke:none"
                 inkscape:connector-curvature="0" />
            </symbol>
            <symbol
               id="textext-837bbd54-2"
               overflow="visible"
               style="overflow:visible">
              <path
                 id="path4449"
                 d="m 2.875,-2.5 c 0,-0.765625 -0.109375,-1.96875 -0.65625,-3.109375 -0.59375,-1.21875 -1.453125,-1.875 -1.546875,-1.875 -0.0625,0 -0.109375,0.046875 -0.109375,0.109375 0,0.03125 0,0.046875 0.1875,0.234375 0.984375,0.984375 1.546875,2.5625 1.546875,4.640625 0,1.71875 -0.359375,3.46875 -1.59375,4.71875 C 0.5625,2.34375 0.5625,2.359375 0.5625,2.390625 0.5625,2.453125 0.609375,2.5 0.671875,2.5 0.765625,2.5 1.671875,1.8125 2.25,0.546875 2.765625,-0.546875 2.875,-1.65625 2.875,-2.5 z"
                 style="stroke:none"
                 inkscape:connector-curvature="0" />
            </symbol>
            <symbol
               id="textext-837bbd54-3"
               overflow="visible"
               style="overflow:visible">
              <path
                 id="path4452"
                 d=""
                 style="stroke:none"
                 inkscape:connector-curvature="0" />
            </symbol>
            <symbol
               id="textext-837bbd54-4"
               overflow="visible"
               style="overflow:visible">
              <path
                 id="path4455"
                 d="m 2.296875,-3.5 c 0.0625,-0.203125 0.15625,-0.59375 0.15625,-0.640625 0,-0.171875 -0.125,-0.265625 -0.296875,-0.265625 -0.015625,0 -0.296875,0.015625 -0.390625,0.359375 l -1.4375,5.765625 c -0.03125,0.125 -0.03125,0.140625 -0.03125,0.171875 0,0.140625 0.109375,0.265625 0.28125,0.265625 0.203125,0 0.328125,-0.1875 0.34375,-0.21875 C 0.96875,1.859375 1.09375,1.328125 1.46875,-0.203125 1.796875,0.0625 2.25,0.109375 2.4375,0.109375 c 0.703125,0 1.09375,-0.453125 1.328125,-0.734375 0.09375,0.453125 0.46875,0.734375 0.90625,0.734375 0.34375,0 0.578125,-0.234375 0.734375,-0.546875 0.171875,-0.359375 0.296875,-0.96875 0.296875,-0.984375 0,-0.109375 -0.09375,-0.109375 -0.125,-0.109375 -0.09375,0 -0.109375,0.046875 -0.140625,0.1875 -0.15625,0.640625 -0.34375,1.234375 -0.75,1.234375 -0.265625,0 -0.296875,-0.265625 -0.296875,-0.453125 0,-0.21875 0.109375,-0.6875 0.1875,-1.046875 L 4.859375,-2.6875 C 4.890625,-2.828125 5,-3.203125 5.03125,-3.359375 5.078125,-3.59375 5.1875,-3.96875 5.1875,-4.03125 c 0,-0.171875 -0.140625,-0.265625 -0.296875,-0.265625 -0.046875,0 -0.3125,0.015625 -0.390625,0.34375 l -0.46875,1.875 c -0.109375,0.5 -0.21875,0.90625 -0.25,1.015625 -0.015625,0.046875 -0.484375,0.953125 -1.296875,0.953125 -0.5,0 -0.734375,-0.328125 -0.734375,-0.875 0,-0.28125 0.0625,-0.5625 0.140625,-0.84375 z"
                 style="stroke:none"
                 inkscape:connector-curvature="0" />
            </symbol>
            <symbol
               id="textext-837bbd54-5"
               overflow="visible"
               style="overflow:visible">
              <path
                 id="path4458"
                 d="M 1.78125,-1.140625 C 1.390625,-0.484375 1,-0.34375 0.5625,-0.3125 0.4375,-0.296875 0.34375,-0.296875 0.34375,-0.109375 0.34375,-0.046875 0.40625,0 0.484375,0 0.75,0 1.0625,-0.03125 1.328125,-0.03125 c 0.34375,0 0.6875,0.03125 1,0.03125 0.0625,0 0.1875,0 0.1875,-0.1875 0,-0.109375 -0.078125,-0.125 -0.15625,-0.125 -0.21875,-0.015625 -0.46875,-0.09375 -0.46875,-0.34375 0,-0.125 0.0625,-0.234375 0.140625,-0.375 l 0.765625,-1.265625 2.5,0 c 0.015625,0.203125 0.15625,1.5625 0.15625,1.65625 0,0.296875 -0.515625,0.328125 -0.71875,0.328125 C 4.59375,-0.3125 4.5,-0.3125 4.5,-0.109375 4.5,0 4.609375,0 4.640625,0 5.046875,0 5.46875,-0.03125 5.875,-0.03125 6.125,-0.03125 6.765625,0 7.015625,0 7.0625,0 7.1875,0 7.1875,-0.203125 7.1875,-0.3125 7.09375,-0.3125 6.953125,-0.3125 6.34375,-0.3125 6.34375,-0.375 6.3125,-0.671875 l -0.609375,-6.21875 c -0.015625,-0.203125 -0.015625,-0.25 -0.1875,-0.25 -0.15625,0 -0.203125,0.078125 -0.265625,0.171875 z M 2.984375,-2.609375 4.9375,-5.90625 5.265625,-2.609375 z"
                 style="stroke:none"
                 inkscape:connector-curvature="0" />
            </symbol>
          </g>
        </defs>
        <g
           id="textext-837bbd54-6">
          <g
             id="g4461"
             style="fill:#000000;fill-opacity:1">
            <use
               id="use4463"
               y="134.765"
               x="223.43201"
               xlink:href="#textext-837bbd54-1"
               width="450"
               height="270" />
          </g>
          <g
             id="g4465"
             style="fill:#000000;fill-opacity:1">
            <use
               id="use4467"
               y="134.765"
               x="227.306"
               xlink:href="#textext-837bbd54-4"
               width="450"
               height="270" />
            <use
               id="use4469"
               y="134.765"
               x="233.30946"
               xlink:href="#textext-837bbd54-5"
               width="450"
               height="270" />
          </g>
          <g
             id="g4471"
             style="fill:#000000;fill-opacity:1">
            <use
               id="use4473"
               y="134.765"
               x="240.78101"
               xlink:href="#textext-837bbd54-2"
               width="450"
               height="270" />
          </g>
        </g>
      </g>
    </g>
    <text
       sodipodi:linespacing="125%"
       id="text4545"
       y="719.36218"
       x="634.5"
       style="font-size:10px;font-style:normal;font-variant:normal;font-weight:normal;font-stretch:normal;line-height:125%;letter-spacing:0px;word-spacing:0px;fill:#000000;fill-opacity:1;stroke:none;font-family:Sans;-inkscape-font-specification:Helvetica"
       xml:space="preserve"><tspan
         y="719.36218"
         x="634.5"
         id="tspan4547"
         sodipodi:role="line">Time (ms)</tspan></text>
    <path
       sodipodi:type="arc"
       style="color:#000000;fill:#dcdcdc;fill-opacity:1;fill-rule:nonzero;stroke:#000000;stroke-width:0.89999998;stroke-linecap:round;stroke-linejoin:round;stroke-miterlimit:4;stroke-opacity:1;stroke-dasharray:none;stroke-dashoffset:0;marker:none;visibility:visible;display:inline;overflow:visible;enable-background:accumulate"
       id="use4601"
       sodipodi:cx="94.938194"
       sodipodi:cy="166.0486"
       sodipodi:rx="4.5"
       sodipodi:ry="4.5"
       d="m 99.438194,166.0486 c 0,2.48528 -2.014718,4.5 -4.5,4.5 -2.485281,0 -4.5,-2.01472 -4.5,-4.5 0,-2.48528 2.014719,-4.5 4.5,-4.5 2.485282,0 4.5,2.01472 4.5,4.5 z"
       transform="translate(260.56181,499.03694)"
       inkscape:tile-x0="90.438194"
       inkscape:tile-y0="161.5486" />
    <path
       sodipodi:type="arc"
       style="color:#000000;fill:#dcdcdc;fill-opacity:1;fill-rule:nonzero;stroke:#000000;stroke-width:0.89999998;stroke-linecap:round;stroke-linejoin:round;stroke-miterlimit:4;stroke-opacity:1;stroke-dasharray:none;stroke-dashoffset:0;marker:none;visibility:visible;display:inline;overflow:visible;enable-background:accumulate"
       id="use4603"
       sodipodi:cx="94.938194"
       sodipodi:cy="166.0486"
       sodipodi:rx="4.5"
       sodipodi:ry="4.5"
       d="m 99.438194,166.0486 c 0,2.48528 -2.014718,4.5 -4.5,4.5 -2.485281,0 -4.5,-2.01472 -4.5,-4.5 0,-2.48528 2.014719,-4.5 4.5,-4.5 2.485282,0 4.5,2.01472 4.5,4.5 z"
       transform="translate(314.56181,485.39988)"
       inkscape:tile-x0="90.438194"
       inkscape:tile-y0="161.5486" />
    <path
       sodipodi:type="arc"
       style="color:#000000;fill:#dcdcdc;fill-opacity:1;fill-rule:nonzero;stroke:#000000;stroke-width:0.89999998;stroke-linecap:round;stroke-linejoin:round;stroke-miterlimit:4;stroke-opacity:1;stroke-dasharray:none;stroke-dashoffset:0;marker:none;visibility:visible;display:inline;overflow:visible;enable-background:accumulate"
       id="use4605"
       sodipodi:cx="94.938194"
       sodipodi:cy="166.0486"
       sodipodi:rx="4.5"
       sodipodi:ry="4.5"
       d="m 99.438194,166.0486 c 0,2.48528 -2.014718,4.5 -4.5,4.5 -2.485281,0 -4.5,-2.01472 -4.5,-4.5 0,-2.48528 2.014719,-4.5 4.5,-4.5 2.485282,0 4.5,2.01472 4.5,4.5 z"
       transform="translate(368.56181,493.98617)"
       inkscape:tile-x0="90.438194"
       inkscape:tile-y0="161.5486" />
    <path
       sodipodi:type="arc"
       style="color:#000000;fill:#dcdcdc;fill-opacity:1;fill-rule:nonzero;stroke:#000000;stroke-width:0.89999998;stroke-linecap:round;stroke-linejoin:round;stroke-miterlimit:4;stroke-opacity:1;stroke-dasharray:none;stroke-dashoffset:0;marker:none;visibility:visible;display:inline;overflow:visible;enable-background:accumulate"
       id="use4607"
       sodipodi:cx="94.938194"
       sodipodi:cy="166.0486"
       sodipodi:rx="4.5"
       sodipodi:ry="4.5"
       d="m 99.438194,166.0486 c 0,2.48528 -2.014718,4.5 -4.5,4.5 -2.485281,0 -4.5,-2.01472 -4.5,-4.5 0,-2.48528 2.014719,-4.5 4.5,-4.5 2.485282,0 4.5,2.01472 4.5,4.5 z"
       transform="translate(422.56181,451.55977)"
       inkscape:tile-x0="90.438194"
       inkscape:tile-y0="161.5486" />
    <path
       sodipodi:type="arc"
       style="color:#000000;fill:#dcdcdc;fill-opacity:1;fill-rule:nonzero;stroke:#000000;stroke-width:0.89999998;stroke-linecap:round;stroke-linejoin:round;stroke-miterlimit:4;stroke-opacity:1;stroke-dasharray:none;stroke-dashoffset:0;marker:none;visibility:visible;display:inline;overflow:visible;enable-background:accumulate"
       id="use4609"
       sodipodi:cx="94.938194"
       sodipodi:cy="166.0486"
       sodipodi:rx="4.5"
       sodipodi:ry="4.5"
       d="m 99.438194,166.0486 c 0,2.48528 -2.014718,4.5 -4.5,4.5 -2.485281,0 -4.5,-2.01472 -4.5,-4.5 0,-2.48528 2.014719,-4.5 4.5,-4.5 2.485282,0 4.5,2.01472 4.5,4.5 z"
       transform="translate(476.56181,463.17652)"
       inkscape:tile-x0="90.438194"
       inkscape:tile-y0="161.5486" />
    <path
       sodipodi:nodetypes="caaaaaaaaaaaacc"
       transform="translate(260.56181,476.81358)"
       inkscape:connector-curvature="0"
       inkscape:original-d="m 54.438192,143.5486 c 0,0 13.194394,7.74186 18,13.5 6.447397,7.72535 5.650981,20.70374 13.5,27 4.824292,3.86991 11.829535,4.91878 17.999998,4.5 8.05921,-0.54696 14.72103,-6.82341 22.5,-9 8.78667,-2.45855 17.87912,-4.74413 27,-4.5 13.82437,0.37003 26.7046,9.96796 40.5,9 12.78457,-0.89704 25.55011,-6.08044 36,-13.5 9.55246,-6.78237 12.26963,-21.29128 22.5,-27 9.26214,-5.16843 21.08153,-6.48882 31.5,-4.5 11.87889,2.26761 22.43385,9.99657 31.5,18 5.62259,4.96352 8.58599,12.3341 13.5,18 5.55957,6.41024 11.11638,13.03857 18,18 5.44198,3.92236 18,9 18,9 l 22.5,4.5"
       inkscape:path-effect="#path-effect4617"
       id="path4615"
       d="m 54.438192,143.5486 c 7.468684,1.87715 14.106708,6.85566 18,13.5 2.568305,4.3831 3.93868,9.34242 5.678751,14.11525 1.740071,4.77283 3.982641,9.55716 7.821249,12.88475 2.41252,2.09135 5.375248,3.51422 8.484742,4.23882 3.109494,0.7246 6.361996,0.76215 9.515256,0.26118 8.00537,-1.27185 15.02825,-5.85731 22.5,-9 8.49394,-3.57264 17.82095,-5.30982 27,-4.5 13.80307,1.21777 26.67642,8.04262 40.5,9 13.20147,0.9143 26.82465,-3.96439 36,-13.5 4.08002,-4.24021 7.2347,-9.26259 10.60402,-14.08687 3.36932,-4.82427 7.06005,-9.56056 11.89598,-12.91313 4.48555,-3.10966 9.81498,-4.90139 15.23582,-5.53749 5.42084,-0.6361 10.93591,-0.14556 16.26418,1.03749 11.99185,2.66259 23.20934,8.93585 31.5,18 5.06509,5.53765 8.98925,12.00218 13.5,18 5.12048,6.80855 11.05492,13.06628 18,18 5.49043,3.90035 11.58546,6.94787 18,9 l 22.5,4.5"
       style="color:#000000;fill:none;stroke:#001eff;stroke-width:0.89999998;stroke-linecap:butt;stroke-linejoin:miter;stroke-miterlimit:4;stroke-opacity:1;stroke-dasharray:none;stroke-dashoffset:0;marker:none;visibility:visible;display:inline;overflow:visible;enable-background:accumulate" />
    <path
       sodipodi:nodetypes="cc"
       transform="translate(260.56181,476.81358)"
       inkscape:connector-curvature="0"
       inkscape:original-d="m 94.938192,188.5486 0,54"
       inkscape:path-effect="#path-effect4631"
       id="path4629"
       d="m 94.938192,188.5486 0,54"
       style="color:#000000;fill:none;stroke:#000000;stroke-width:0.44999999;stroke-linecap:butt;stroke-linejoin:miter;stroke-miterlimit:4;stroke-opacity:1;stroke-dasharray:0.9, 0.45;stroke-dashoffset:0;marker:none;visibility:visible;display:inline;overflow:visible;enable-background:accumulate" />
    <path
       sodipodi:nodetypes="cc"
       inkscape:connector-curvature="0"
       inkscape:original-d="m 409.5,650.96218 0,68.4"
       inkscape:path-effect="#path-effect4631-4"
       id="path4629-1"
       d="m 409.5,650.96218 0,68.4"
       style="color:#000000;fill:none;stroke:#000000;stroke-width:0.44999999;stroke-linecap:butt;stroke-linejoin:miter;stroke-miterlimit:4;stroke-opacity:1;stroke-dasharray:0.9, 0.45;stroke-dashoffset:0;marker:none;visibility:visible;display:inline;overflow:visible;enable-background:accumulate" />
    <path
       sodipodi:nodetypes="cc"
       inkscape:connector-curvature="0"
       inkscape:original-d="m 408.6,714.86218 -52.2,0"
       inkscape:path-effect="#path-effect8206-7-8-9"
       id="path8204-6-8"
       d="m 408.6,714.86218 -52.2,0"
       style="fill:none;stroke:#000000;stroke-width:0.89999998;stroke-linecap:butt;stroke-linejoin:miter;stroke-miterlimit:4;stroke-opacity:1;stroke-dasharray:none;marker-start:url(#Arrow2Mstart);marker-end:url(#Arrow2Mend)" />
    <g
       id="g4860"
       ns0:preamble=""
       ns0:text="$\\tau_c$"
       transform="matrix(1.3683024,0,0,1.517728,73.239249,521.68795)">
      <defs
         id="defs4862">
        <g
           id="g4864">
          <symbol
             id="textext-403f73da-0"
             overflow="visible"
             style="overflow:visible">
            <path
               id="path4867"
               d=""
               style="stroke:none"
               inkscape:connector-curvature="0" />
          </symbol>
          <symbol
             id="textext-403f73da-1"
             overflow="visible"
             style="overflow:visible">
            <path
               id="path4870"
               d="m 2.9375,-3.71875 1.671875,0 c 0.125,0 0.484375,0 0.484375,-0.34375 0,-0.234375 -0.203125,-0.234375 -0.40625,-0.234375 l -2.78125,0 c -0.203125,0 -0.59375,0 -1.03125,0.46875 -0.328125,0.359375 -0.609375,0.84375 -0.609375,0.890625 0,0.015625 0,0.109375 0.125,0.109375 0.078125,0 0.09375,-0.046875 0.15625,-0.125 C 1.03125,-3.71875 1.609375,-3.71875 1.8125,-3.71875 l 0.828125,0 -0.96875,3.203125 C 1.625,-0.40625 1.5625,-0.1875 1.5625,-0.15625 c 0,0.109375 0.078125,0.28125 0.296875,0.28125 0.328125,0 0.375,-0.28125 0.40625,-0.4375 z"
               style="stroke:none"
               inkscape:connector-curvature="0" />
          </symbol>
          <symbol
             id="textext-403f73da-2"
             overflow="visible"
             style="overflow:visible">
            <path
               id="path4873"
               d=""
               style="stroke:none"
               inkscape:connector-curvature="0" />
          </symbol>
          <symbol
             id="textext-403f73da-3"
             overflow="visible"
             style="overflow:visible">
            <path
               id="path4876"
               d="m 3.046875,-2.671875 c -0.25,0.046875 -0.34375,0.234375 -0.34375,0.390625 0,0.1875 0.140625,0.265625 0.265625,0.265625 0.15625,0 0.390625,-0.109375 0.390625,-0.453125 0,-0.46875 -0.53125,-0.609375 -0.90625,-0.609375 -1.046875,0 -2.015625,0.96875 -2.015625,1.9375 0,0.59375 0.40625,1.203125 1.28125,1.203125 1.1875,0 1.734375,-0.6875 1.734375,-0.78125 0,-0.046875 -0.0625,-0.125 -0.125,-0.125 -0.03125,0 -0.046875,0.015625 -0.109375,0.078125 C 2.671875,-0.125 1.859375,-0.125 1.734375,-0.125 c -0.5,0 -0.71875,-0.34375 -0.71875,-0.78125 0,-0.1875 0.09375,-0.953125 0.453125,-1.4375 0.265625,-0.34375 0.625,-0.53125 0.984375,-0.53125 0.09375,0 0.421875,0.015625 0.59375,0.203125 z"
               style="stroke:none"
               inkscape:connector-curvature="0" />
          </symbol>
        </g>
      </defs>
      <g
         id="textext-403f73da-4">
        <g
           id="g4879"
           style="fill:#000000;fill-opacity:1">
          <use
             id="use4881"
             y="134.765"
             x="223.43201"
             xlink:href="#textext-403f73da-1"
             width="450"
             height="270" />
        </g>
        <g
           id="g4883"
           style="fill:#000000;fill-opacity:1">
          <use
             id="use4885"
             y="136.259"
             x="227.787"
             xlink:href="#textext-403f73da-3"
             width="450"
             height="270" />
        </g>
      </g>
    </g>
    <text
       xml:space="preserve"
       style="font-size:10px;font-style:normal;font-variant:normal;font-weight:normal;font-stretch:normal;line-height:125%;letter-spacing:0px;word-spacing:0px;fill:#000000;fill-opacity:1;stroke:none;font-family:Sans;-inkscape-font-specification:Helvetica"
       x="364.5"
       y="741.86218"
       id="text4973"
       sodipodi:linespacing="125%"><tspan
         sodipodi:role="line"
         id="tspan4975"
         x="364.5"
         y="741.86218">Set with</tspan><tspan
         sodipodi:role="line"
         x="364.5"
         y="754.36218"
         id="tspan4977">curper</tspan></text>
    <path
       style="color:#000000;fill:none;stroke:#000000;stroke-width:0.44999999;stroke-linecap:butt;stroke-linejoin:miter;stroke-miterlimit:4;stroke-opacity:1;stroke-dasharray:0.9, 0.9;stroke-dashoffset:0;marker:none;visibility:visible;display:inline;overflow:visible;enable-background:accumulate"
       d="m 256.93819,166.0486 -206.999998,0"
       id="path4979"
       inkscape:path-effect="#path-effect4981"
       inkscape:original-d="m 256.93819,166.0486 -206.999998,0"
       inkscape:connector-curvature="0"
       transform="translate(260.56181,476.81358)"
       sodipodi:nodetypes="cc" />
    <text
       xml:space="preserve"
       style="font-size:10px;font-style:normal;font-variant:normal;font-weight:normal;font-stretch:normal;line-height:125%;letter-spacing:0px;word-spacing:0px;fill:#000000;fill-opacity:1;stroke:none;font-family:Sans;-inkscape-font-specification:Helvetica"
       x="7.323606"
       y="143.98347"
       id="text4983"
       sodipodi:linespacing="125%"
       transform="translate(260.56181,476.81358)"><tspan
         sodipodi:role="line"
         x="7.323606"
         y="143.98347"
         id="tspan4987" /></text>
    <text
       xml:space="preserve"
       style="font-size:10px;font-style:normal;font-variant:normal;font-weight:normal;font-stretch:normal;line-height:125%;letter-spacing:0px;word-spacing:0px;fill:#000000;fill-opacity:1;stroke:none;font-family:Sans;-inkscape-font-specification:Helvetica"
       x="211.5"
       y="633.86218"
       id="text4991"
       sodipodi:linespacing="125%"><tspan
         sodipodi:role="line"
         id="tspan4993"
         x="211.5"
         y="633.86218">Response from</tspan><tspan
         sodipodi:role="line"
         x="211.5"
         y="646.36218"
         id="tspan4995">curout? is running</tspan><tspan
         sodipodi:role="line"
         x="211.5"
         y="658.86218"
         id="tspan4997">average of 4</tspan><tspan
         sodipodi:role="line"
         x="211.5"
         y="671.36218"
         id="tspan4999">samples</tspan></text>
    <text
       xml:space="preserve"
       style="font-size:10px;font-style:normal;font-variant:normal;font-weight:normal;font-stretch:normal;line-height:125%;letter-spacing:0px;word-spacing:0px;fill:#000000;fill-opacity:1;stroke:none;font-family:Sans;-inkscape-font-specification:Helvetica"
       x="409.5"
       y="575.36218"
       id="text5001"
       sodipodi:linespacing="125%"><tspan
         sodipodi:role="line"
         id="tspan5003"
         x="409.5"
         y="575.36218">Output current</tspan><tspan
         sodipodi:role="line"
         x="409.5"
         y="587.86218"
         id="tspan5005">samples</tspan></text>
    <path
       sodipodi:nodetypes="cc"
       inkscape:connector-curvature="0"
       inkscape:original-d="m 468,584.36218 45,27"
       inkscape:path-effect="#path-effect8206-7-8-9-8"
       id="path8204-6-8-2"
       d="m 468,584.36218 45,27"
       style="fill:none;stroke:#000000;stroke-width:0.89999998;stroke-linecap:butt;stroke-linejoin:miter;stroke-miterlimit:4;stroke-opacity:1;stroke-dasharray:none;marker-start:none;marker-end:url(#Arrow2Mend)" />
  </g>
</svg>
